<svg width="309" height="423" viewBox="0 0 309 423" fill="none" xmlns="http://www.w3.org/2000/svg">
<path d="M250.139 6.07622C250.139 6.07622 250.139 3.63967 249.246 1.20312H244.05V58.9493H250.139V6.07622Z" fill="#0000FF" stroke="#91AABF" stroke-miterlimit="10"/>
<path d="M58.8611 6.07622C58.8611 6.07622 58.8611 3.63967 59.7541 1.20312H64.9502V58.9493H58.8611V6.07622Z" fill="#0000FF" stroke="#91AABF" stroke-miterlimit="10"/>
<path d="M303.966 326.401C294.386 309.02 270.355 284.33 269.137 282.949C267.675 281.406 264.834 280.432 264.428 280.675C264.022 280.838 249.733 286.279 248.028 287.091C246.323 287.904 245.186 287.173 244.537 287.416C243.887 287.66 237.23 296.594 235.119 299.112C233.008 301.629 227.569 299.924 227.569 299.924C227.569 299.924 204.999 292.289 200.208 290.096C200.208 290.096 200.208 293.914 202.319 295.051C203.294 295.619 203.943 296.025 204.268 296.269C204.674 296.594 204.755 296.756 204.755 296.756C204.755 296.756 224.484 304.878 224.484 304.797C224.484 304.797 224.565 304.878 224.808 305.041C225.133 305.284 225.458 305.609 225.701 305.853C225.783 305.934 225.783 306.015 225.864 306.096C226.107 306.421 226.351 306.827 226.432 307.234L227.731 306.746L234.064 305.528C234.064 305.528 235.687 305.284 236.824 303.66C237.961 302.036 244.293 293.102 247.297 290.909C250.382 288.716 255.822 284.574 260.369 283.599C261.749 283.274 262.723 282.462 264.022 284.33C264.022 284.33 291.626 312.919 297.228 321.203C302.83 329.487 308.838 345.244 306.24 358.32C306.564 358.401 312.491 341.995 303.966 326.401Z" fill="#0000FF" stroke="#91AABF" stroke-miterlimit="10"/>
<path d="M227.731 421.02C227.731 421.02 225.945 420.533 223.428 418.178C220.911 415.904 217.664 409.325 215.715 405.02C213.686 400.716 210.844 385.447 210.844 385.447L214.904 389.426C214.904 389.426 217.745 397.305 221.236 405.751C224.24 412.899 227.325 420.696 233.008 422.157L227.731 421.02Z" fill="#0000FF" stroke="#91AABF" stroke-miterlimit="10"/>
<path d="M211.169 259.233C211.169 259.233 223.509 255.01 233.008 251.03C234.388 250.462 235.687 249.893 236.905 249.325C237.474 249.081 237.961 248.838 238.448 248.594C240.315 247.7 242.264 246.807 244.131 245.832C252.006 241.853 259.8 237.629 259.8 237.629C260.856 238.442 261.749 239.254 262.398 239.903C262.642 240.147 262.885 240.391 263.21 240.716C263.21 240.716 252.98 247.376 239.99 253.305C230.41 257.69 216.202 263.051 209.464 265.568C210.113 263.619 210.682 261.426 211.169 259.233Z" fill="#0000FF" stroke="#91AABF" stroke-miterlimit="10"/>
<path d="M247.054 139.355C252.331 139.355 252.331 145.609 252.331 145.609H214.903C214.903 145.609 214.903 139.355 220.099 139.355C223.996 139.355 241.776 139.355 247.054 139.355Z" fill="#0000FF" stroke="#91AABF" stroke-miterlimit="10"/>
<path d="M220.181 198.076C214.903 198.076 214.903 191.823 214.903 191.823H252.331C252.331 191.823 252.331 198.076 247.135 198.076C243.238 198.076 225.458 198.076 220.181 198.076Z" fill="#0000FF" stroke="#91AABF" stroke-miterlimit="10"/>
<path d="M247.054 52.6143C252.331 52.6143 252.331 58.8681 252.331 58.8681H214.903C214.903 58.8681 214.903 52.6143 220.099 52.6143C223.996 52.6143 241.776 52.6143 247.054 52.6143Z" fill="#0000FF" stroke="#91AABF" stroke-miterlimit="10"/>
<path d="M252.331 58.7869H244.05V105H252.331V58.7869Z" fill="#0000FF" stroke="#91AABF" stroke-miterlimit="10"/>
<path d="M64.7877 58.7869H56.5066V105H64.7877V58.7869Z" fill="#0000FF" stroke="#91AABF" stroke-miterlimit="10"/>
<path d="M4.95246 326.401C14.5326 309.02 38.5641 284.33 39.7819 282.949C41.2433 281.406 44.0849 280.432 44.4908 280.675C44.8968 280.838 59.1858 286.279 60.8907 287.091C62.5957 287.904 63.7323 287.173 64.3818 287.416C65.0313 287.66 71.6887 296.594 73.7995 299.112C75.9104 301.629 81.35 299.924 81.35 299.924C81.35 299.924 103.92 292.289 108.71 290.096C108.71 290.096 108.71 293.914 106.599 295.051C105.625 295.619 104.976 296.025 104.651 296.269C104.245 296.594 104.164 296.756 104.164 296.756C104.164 296.756 84.4351 304.878 84.4351 304.797C84.4351 304.797 84.3539 304.878 84.1104 305.041C83.7856 305.284 83.4609 305.609 83.2173 305.853C83.1361 305.934 83.1361 306.015 83.0549 306.096C82.8114 306.421 82.5678 306.827 82.4866 307.234L81.1876 306.746L74.855 305.528C74.855 305.528 73.2312 305.284 72.0946 303.66C70.958 302.036 64.6254 293.102 61.6214 290.909C58.5363 288.716 53.0967 284.574 48.5502 283.599C47.17 283.274 46.1958 282.462 44.8968 284.33C44.8968 284.33 17.293 312.919 11.691 321.203C6.08908 329.487 -0.162362 345.325 2.43564 358.401C2.43564 358.401 -3.49105 341.995 4.95246 326.401Z" fill="#0000FF" stroke="#91AABF" stroke-miterlimit="10"/>
<path d="M81.2689 421.02C81.2689 421.02 83.055 420.533 85.5718 418.178C88.0886 415.904 91.3362 409.325 93.2847 405.02C95.3143 400.716 98.1559 385.447 98.1559 385.447L94.0965 389.426C94.0965 389.426 91.255 397.305 87.7639 405.751C84.76 412.899 81.6748 420.696 75.9917 422.157L81.2689 421.02Z" fill="#0000FF" stroke="#91AABF" stroke-miterlimit="10"/>
<path d="M97.7498 259.233C97.7498 259.233 85.4092 255.01 75.9103 251.03C74.5301 250.462 73.2311 249.893 72.0133 249.325C71.445 249.081 70.9578 248.838 70.4707 248.594C68.6034 247.7 66.6549 246.807 64.7876 245.832C56.9124 241.853 49.1184 237.629 49.1184 237.629C48.0629 238.442 47.1699 239.254 46.5204 239.903C46.2768 240.147 46.0332 240.391 45.7085 240.716C45.7085 240.716 55.9381 247.376 68.9282 253.305C78.5083 257.69 92.7161 263.051 99.4547 265.568C98.8864 263.619 98.2369 261.426 97.7498 259.233Z" fill="#0000FF" stroke="#91AABF" stroke-miterlimit="10"/>
<path d="M61.9461 139.355C56.6689 139.355 56.6689 145.609 56.6689 145.609H94.0964C94.0964 145.609 94.0964 139.355 88.9004 139.355C85.0034 139.355 67.1421 139.355 61.9461 139.355Z" fill="#0000FF" stroke="#91AABF" stroke-miterlimit="10"/>
<path d="M88.8192 198.076C94.0964 198.076 94.0964 191.823 94.0964 191.823H56.6689C56.6689 191.823 56.6689 198.076 61.8649 198.076C65.6808 198.076 83.542 198.076 88.8192 198.076Z" fill="#0000FF" stroke="#91AABF" stroke-miterlimit="10"/>
<path d="M61.9461 52.6143C56.6689 52.6143 56.6689 58.8681 56.6689 58.8681H94.0964C94.0964 58.8681 94.0964 52.6143 88.9004 52.6143C85.0034 52.6143 67.1421 52.6143 61.9461 52.6143Z" fill="#0000FF" stroke="#91AABF" stroke-miterlimit="10"/>
<path d="M61.7838 111.254C56.5066 111.254 56.5066 105 56.5066 105H93.9341C93.9341 105 93.9341 111.254 88.7381 111.254C84.8411 111.254 67.061 111.254 61.7838 111.254Z" fill="#0000FF" stroke="#91AABF" stroke-miterlimit="10"/>
<path d="M220.181 111.254C214.904 111.254 214.904 105 214.904 105H252.331C252.331 105 252.331 111.254 247.135 111.254C243.238 111.254 225.458 111.254 220.181 111.254Z" fill="#0000FF" stroke="#91AABF" stroke-miterlimit="10"/>
</svg>
