<svg width="61" height="32" viewBox="0 0 61 32" fill="none" xmlns="http://www.w3.org/2000/svg">
<path fill-rule="evenodd" clip-rule="evenodd" d="M13.0556 10.3403C11.03 11.923 9.35462 13.7927 7.97228 15.7228C3.34595 15.8986 0 16.6454 0 16.6454C1.78945 17.2674 4.21826 17.5199 6.74188 17.5686C3.27552 23.1911 2.15002 28.7238 2.15002 28.7238C2.15002 28.7238 5.50492 22.8608 10.1293 17.5271C14.846 17.3382 19.0343 16.6871 19.0343 16.6871C16.5842 16.0967 14.0985 15.818 11.7658 15.7241C13.4282 13.9799 15.2101 12.3812 17.0289 11.1803C24.809 6.04296 26.7449 10.2302 26.7449 10.2302C26.7449 10.2302 31.6496 5.54675 36.285 4.9146C36.285 4.9146 24.8537 1.12207 13.0556 10.3403ZM29.8922 16.0001L30.2174 14.9798H40.7737C40.7737 14.9798 41.2383 15.0497 41.0999 15.4843C40.9611 15.9188 40.452 15.989 40.452 15.989L40.4485 16.0001H29.8922ZM39.9712 17.4972L39.9747 17.4862C43.1816 17.4862 43.7072 15.4843 43.7072 15.4843C43.7072 15.4843 44.4581 13.4827 41.2513 13.4827H26.9365L26.459 14.9798L26.1338 16.0001L25.6566 17.4972L24.8538 20.0145H28.6121L29.4149 17.4972H31.5808L36.3977 20.0145H42.2632L37.4464 17.4972H39.9712ZM19.2176 20.0144H22.976L25.0587 13.4827H21.3003L19.2176 20.0144ZM60.2107 14.9799L60.688 13.4828H46.3732L45.8959 14.9799L45.5708 16.0002L45.0932 17.4973L44.7679 18.5174L44.2907 20.0145H57.8609L59.0827 18.5174H48.5265L48.8516 17.4973H55.067L55.5442 16.0002H49.3291L49.6544 14.9799H60.2107ZM31.3025 28.222C31.3025 28.222 32.8072 25.6566 39.0684 22.597C39.9176 22.182 40.7523 21.7894 41.5683 21.4083H35.0322C31.6777 24.0198 28.7299 27.0997 27.6086 31.0345C27.6086 31.0345 36.7597 26.2071 46.9184 32C46.9184 32 50.4028 25.5352 54.9365 23.1004C54.9365 23.1004 40.6218 22.4288 31.3025 28.222ZM43.3923 4.62999C48.0452 3.94921 50.6159 8.14257 47.6536 12.0505H53.8674C54.0766 11.6023 54.2672 11.1323 54.4328 10.633C56.8325 3.38668 50.6128 -0.239398 45.7851 0.0122577C40.9575 0.264438 36.5334 2.82505 36.3947 9.75157C36.3947 9.75157 38.2291 5.38567 43.3923 4.62999Z" fill="white"/>
</svg>
