<svg width="84" height="221" viewBox="0 0 84 221" fill="none" xmlns="http://www.w3.org/2000/svg">
<path d="M10.6289 4.37182C10.8258 2.99545 11.121 2.11064 11.3178 1.42245C11.3178 1.32414 11.4163 1.32414 11.4163 1.22583C11.4163 1.12752 11.4163 1.12752 11.5147 1.02921C11.5147 1.02921 11.5147 0.930894 11.6131 0.930894C11.6131 0.832581 11.7115 0.832585 11.7115 0.734272C11.7115 0.734272 11.7115 0.734281 11.7115 0.635969C11.7115 0.537657 11.8099 0.537645 11.8099 0.439333C11.9083 0.341021 11.9083 0.341024 12.0068 0.242712C12.1052 0.1444 12.2036 0.144409 12.302 0.144409C12.4004 0.144409 12.4004 0.144409 12.4988 0.144409C12.5973 0.144409 12.6957 0.242718 12.8925 0.34103C13.3846 0.734278 13.7783 1.7174 14.1719 2.60221C14.2704 2.79883 14.3688 3.09377 14.3688 3.29039C14.4672 3.68364 14.5656 3.97858 14.664 4.27351C14.664 4.37182 14.7624 4.47014 14.7624 4.56845C14.7624 4.76508 14.8609 4.86338 14.8609 4.96169C14.8609 5.06001 14.8609 5.06001 14.8609 5.06001C14.8609 5.15832 14.8609 5.15831 14.8609 5.15831C36.0205 60.8029 67.317 100.914 83.7526 127.164L78.6349 189.788H78.1428C51.3735 192.148 30.2139 212.793 24.4073 218.889C23.4231 219.97 22.8326 220.658 22.8326 220.658C9.8416 211.319 2.46034 183.595 0.787252 131.883C-0.885833 80.1704 5.51126 34.5536 10.6289 4.37182Z" fill="#9AB7CD"/>
</svg>
