<svg width="84" height="221" viewBox="0 0 84 221" fill="none" xmlns="http://www.w3.org/2000/svg">
<path d="M73.3712 4.37182C73.1744 2.99545 72.8791 2.11064 72.6823 1.42245C72.6823 1.32414 72.5839 1.32414 72.5839 1.22583C72.5839 1.12752 72.5839 1.12752 72.4855 1.02921C72.4855 1.02921 72.4855 0.930894 72.387 0.930894C72.387 0.832582 72.2886 0.832585 72.2886 0.734272C72.2886 0.734272 72.2886 0.734281 72.2886 0.635969C72.2886 0.537657 72.1902 0.537645 72.1902 0.439333C72.0918 0.341021 72.0918 0.341024 71.9934 0.242712C71.895 0.1444 71.7965 0.144409 71.6981 0.144409C71.5997 0.144409 71.5997 0.144409 71.5013 0.144409C71.4029 0.144409 71.3045 0.242718 71.1076 0.34103C70.6155 0.734279 70.2219 1.7174 69.8282 2.60221C69.7298 2.79883 69.6314 3.09377 69.6314 3.29039C69.533 3.68364 69.4345 3.97858 69.3361 4.27351C69.3361 4.37182 69.2377 4.47014 69.2377 4.56845C69.2377 4.76508 69.1393 4.86338 69.1393 4.96169C69.1393 5.06001 69.1393 5.06001 69.1393 5.06001C69.1393 5.15832 69.1393 5.15831 69.1393 5.15831C47.9797 60.8029 16.9784 101.209 0.247559 127.164L5.36523 189.592H5.85731C32.6267 191.951 53.7863 212.597 59.5929 218.692C60.577 219.774 61.1675 220.462 61.1675 220.462C74.1585 211.122 81.5398 183.3 83.2129 131.588C84.9844 80.1704 78.4889 34.5536 73.3712 4.37182Z" fill="#9AB7CD"/>
</svg>
