<svg width="117" height="260" viewBox="0 0 117 260" fill="none" xmlns="http://www.w3.org/2000/svg">
<path d="M5.25407 161.786C6.7346 143.372 9.14045 119.684 14.5999 111.726C20.6145 103.398 38.1957 80.2649 40.7867 76.1009C48.7445 63.4239 68.454 47.9709 76.4118 40.8459C96.3063 22.8946 115.831 3 115.831 3C115.831 3 115.831 239.421 115.831 248.582C115.831 249.137 115.738 249.692 115.553 250.248C115.461 250.71 115.276 251.08 114.998 251.543C114.628 252.006 114.165 252.561 113.61 253.209C105.93 259.871 80.4832 258.668 70.4897 258.668C57.35 258.668 26.0739 255.244 21.2622 248.119C19.6892 245.713 18.0236 243.123 16.4505 240.347C15.7103 238.959 14.8775 237.478 14.1372 235.998C8.12259 224.153 3.03329 209.07 2.01543 191.212C1.55276 181.033 4.05115 166.783 5.25407 161.786Z" fill="#9AB7CD" stroke="#9AB7CD" stroke-width="2" stroke-miterlimit="10"/>
</svg>
