<svg width="22" height="20" viewBox="0 0 22 20" fill="none" xmlns="http://www.w3.org/2000/svg">
<path d="M17.6 0H4.4V4.44444H17.6V0ZM18.7 10C18.4083 10 18.1285 9.88294 17.9222 9.67456C17.7159 9.46619 17.6 9.18357 17.6 8.88889C17.6 8.5942 17.7159 8.31159 17.9222 8.10322C18.1285 7.89484 18.4083 7.77778 18.7 7.77778C18.9917 7.77778 19.2715 7.89484 19.4778 8.10322C19.6841 8.31159 19.8 8.5942 19.8 8.88889C19.8 9.18357 19.6841 9.46619 19.4778 9.67456C19.2715 9.88294 18.9917 10 18.7 10ZM15.4 17.7778H6.6V12.2222H15.4V17.7778ZM18.7 5.55556H3.3C2.42479 5.55556 1.58542 5.90674 0.966548 6.53187C0.347678 7.15699 0 8.00483 0 8.88889V15.5556H4.4V20H17.6V15.5556H22V8.88889C22 8.00483 21.6523 7.15699 21.0335 6.53187C20.4146 5.90674 19.5752 5.55556 18.7 5.55556Z" fill="white"/>
</svg>
