<svg width="96" height="24" viewBox="0 0 96 24" fill="none" xmlns="http://www.w3.org/2000/svg">
<path fill-rule="evenodd" clip-rule="evenodd" d="M59.5285 12.5228L57.0936 23.3835H49.9751C49.3656 21.6693 48.479 18.9033 47.9853 17.5466C47.759 18.4742 47.3945 20.48 46.6717 23.3835H39.5949L37.1198 12.5832C36.2151 6.33187 25.2316 5.48762 16.8398 6.41033C22.3038 6.19925 33.5005 7.43577 35.2959 11.5105C31.871 8.49387 27.8643 10.1664 24.3179 9.72484C27.3186 10.2566 28.7044 10.1678 31.4461 10.4149C26.3404 12.2478 11.7361 10.0505 8.30151 7.51145C12.6936 8.47302 19.7544 8.79103 24.0416 8.42445C16.8211 7.71211 5.63686 6.24785 0 1.81276C9.27283 5.90142 41.2799 -0.194391 42.5845 12.2784L43.1663 16.1532L43.7613 19.8933L47.9624 0L52.5065 20.1599C52.8099 17.5147 53.325 14.8014 54.0499 12.2784C57.4039 -1.75653 85.714 6.3256 95.9484 1.81276C90.3116 6.24785 77.1681 7.85234 69.9476 8.56468C74.2347 8.93126 83.2556 8.47302 87.6476 7.51145C84.2116 10.0505 69.9594 11.934 64.8015 10.4455C67.5433 10.1983 68.1848 10.4101 71.1834 9.56585C67.5162 10.3532 64.7634 8.49387 61.3385 11.5105C63.1339 7.43577 72.6157 6.30895 78.0804 6.52003C69.8365 5.27654 60.7469 6.67137 59.5285 12.5228Z" fill="white"/>
<path fill-rule="evenodd" clip-rule="evenodd" d="M36.0642 16.0213H30.7752V15.1999C30.7752 14.8153 30.7057 14.5695 30.571 14.4647C30.437 14.3585 30.2107 14.3078 29.892 14.3078C29.5511 14.3078 29.2922 14.3779 29.1158 14.5203C28.9409 14.6605 28.8527 14.8764 28.8527 15.1638C28.8527 15.5339 28.9492 15.8151 29.1478 16.0025C29.338 16.1893 29.8781 16.4142 30.7606 16.6809C33.2975 17.4446 34.8909 18.0694 35.5504 18.5596C36.2114 19.0484 36.5398 19.8371 36.5398 20.9264C36.5398 21.7179 36.3544 22.2997 35.9892 22.6753C35.6247 23.0495 34.9179 23.3654 33.8738 23.6181C32.8261 23.8709 31.6104 24 30.2204 24C28.6958 24 27.3926 23.8528 26.3172 23.5598C25.2355 23.2675 24.5287 22.8947 24.1961 22.4427C23.8643 21.9894 23.6983 21.3478 23.6983 20.514V19.7885H28.9867V21.1395C28.9867 21.5561 29.061 21.822 29.2081 21.9421C29.3609 22.0588 29.6247 22.1199 30.0038 22.1199C30.3815 22.1199 30.6634 22.0449 30.8481 21.8928C31.0334 21.7429 31.1258 21.5179 31.1258 21.2208C31.1258 20.5675 30.9501 20.1391 30.5988 19.9384C30.2385 19.7364 29.3477 19.4017 27.9334 18.931C26.515 18.4533 25.5778 18.1097 25.1161 17.8945C24.6585 17.6786 24.2753 17.3814 23.974 17.0016C23.6699 16.6226 23.522 16.1386 23.522 15.5478C23.522 14.6987 23.7351 14.0752 24.1642 13.6822C24.5891 13.2893 25.2827 12.9824 26.238 12.7602C27.1947 12.5394 28.3493 12.4277 29.7025 12.4277C31.1862 12.4277 32.447 12.5492 33.4856 12.7908C34.5305 13.0338 35.2186 13.3386 35.5602 13.7079C35.8976 14.0752 36.0642 14.7008 36.0642 15.5832V16.0213Z" fill="white"/>
<path fill-rule="evenodd" clip-rule="evenodd" d="M72.974 16.0213H67.6843V15.1999C67.6843 14.8153 67.6149 14.5695 67.4809 14.4647C67.3476 14.3585 67.1199 14.3078 66.8026 14.3078C66.4603 14.3078 66.2013 14.3779 66.0257 14.5203C65.85 14.6605 65.7632 14.8764 65.7632 15.1638C65.7632 15.5339 65.8597 15.8151 66.0583 16.0025C66.2478 16.1893 66.788 16.4142 67.6697 16.6809C70.2073 17.4446 71.8 18.0694 72.4603 18.5596C73.1213 19.0484 73.4489 19.8371 73.4489 20.9264C73.4489 21.7179 73.2636 22.2997 72.8998 22.6753C72.5346 23.0495 71.8278 23.3654 70.7836 23.6181C69.7352 23.8709 68.5202 24 67.1303 24C65.605 24 64.3032 23.8528 63.2263 23.5598C62.1453 23.2675 61.4386 22.8947 61.106 22.4427C60.7734 21.9894 60.6075 21.3478 60.6075 20.514V19.7885H65.8965V21.1395C65.8965 21.5561 65.9708 21.822 66.1187 21.9421C66.2708 22.0588 66.5339 22.1199 66.9137 22.1199C67.2914 22.1199 67.5733 22.0449 67.7579 21.8928C67.9426 21.7429 68.0356 21.5179 68.0356 21.2208C68.0356 20.5675 67.8593 20.1391 67.5094 19.9384C67.1484 19.7364 66.2576 19.4017 64.8433 18.931C63.4249 18.4533 62.4876 18.1097 62.0259 17.8945C61.5684 17.6786 61.1852 17.3814 60.8845 17.0016C60.5797 16.6226 60.4312 16.1386 60.4312 15.5478C60.4312 14.6987 60.6443 14.0752 61.0741 13.6822C61.499 13.2893 62.1918 12.9824 63.1486 12.7602C64.1039 12.5394 65.2585 12.4277 66.6117 12.4277C68.0953 12.4277 69.3569 12.5492 70.3955 12.7908C71.4397 13.0338 72.1277 13.3386 72.47 13.7079C72.8074 14.0752 72.974 14.7008 72.974 15.5832V16.0213Z" fill="white"/>
</svg>
