<svg width="26" height="64" viewBox="0 0 26 64" fill="none" xmlns="http://www.w3.org/2000/svg">
<path fill-rule="evenodd" clip-rule="evenodd" d="M10.1111 29.5126C9.98958 29.7742 9.8846 30.0404 9.79749 30.3093L9.64257 30.7878L9.5936 30.939C9.67673 31.4128 9.72104 31.8867 9.69981 32.325C9.62537 33.8617 9.07946 35.5411 8.57266 37.1003C8.30192 37.9332 8.04234 38.7318 7.87175 39.456C7.34775 41.6802 7.30238 44.3504 8.07906 46.6144C7.30249 45.6089 6.71721 44.4962 6.37221 43.3453C6.36025 45.6563 6.87287 48.1026 8.5159 50.0692C4.29371 47.8551 3.38272 39.4951 5.06775 35.3585C7.04441 30.5058 5.64456 23.7409 1.12341 23.1604C-0.0388219 23.0112 1.33721 22.782 3.28125 23.2087C0.622102 19.3735 0.896197 14.6166 2.2553 10.3071C4.16315 4.25795 8.23386 -1.18157 7.5938 0.223628C3.73873 8.6866 4.4074 13.5364 6.23441 16.6923C7.63754 19.1161 9.70868 20.7036 11.417 22.013C11.8533 22.3474 12.2659 22.6636 12.6377 22.9711C13.0094 22.6636 13.422 22.3474 13.8583 22.013C15.5666 20.7036 17.6378 19.1161 19.0409 16.6923C20.8679 13.5364 21.5366 8.6866 17.6815 0.223628C17.0415 -1.18157 21.1122 4.25795 23.02 10.3071C24.3784 14.6143 24.6529 19.3684 21.9984 23.2025C23.9273 22.7842 25.2843 23.0119 24.1277 23.1604C19.6065 23.7409 18.2067 30.5058 20.1834 35.3585C21.8684 39.4951 20.9574 47.8551 16.7352 50.0692C20.9475 45.0274 17.73 36.8329 17.2909 35.8478C16.6579 34.4275 16.2538 33.1604 16.0356 32.0304C15.9102 31.6446 15.776 31.2302 15.6327 30.7878L15.4778 30.3093C15.4061 30.0879 15.3222 29.8683 15.227 29.6516C15.1998 29.7637 15.173 29.8767 15.1466 29.9909C14.6668 32.0633 16.2311 36.0234 17.1176 37.5118C18.8839 40.477 18.1777 44.0503 16.027 46.8011C16.8149 44.543 16.7828 41.8725 16.2699 39.6443C16.1029 38.9189 15.8473 38.1184 15.5808 37.2835C15.3111 36.4389 15.0302 35.5591 14.8184 34.6862C14.7261 34.5519 14.6118 34.362 14.4914 34.1621L14.4913 34.162L14.4912 34.1618C14.4236 34.0496 14.3542 33.9342 14.2857 33.8238C13.8511 33.1233 13.2861 32.4455 12.6377 31.7821C11.9892 32.4455 11.4242 33.1233 10.9897 33.8238C10.9211 33.9343 10.8516 34.0497 10.7841 34.1619C10.3455 34.8903 9.98715 35.4855 10.4826 33.7459C10.7411 32.8383 11.1222 31.8493 11.635 30.8208C11.1498 30.3809 10.637 29.9457 10.1111 29.5126ZM11.5244 27.4271C11.9312 27.9647 12.3019 28.5036 12.6377 29.0384C12.9734 28.5036 13.3441 27.9647 13.7509 27.4271C13.4123 27.0628 13.0391 26.7257 12.6377 26.4241C12.2362 26.7257 11.863 27.0628 11.5244 27.4271ZM10.3036 25.9446C8.98883 25.6505 5.41224 20.6742 5.57522 20.5654C8.34571 23.1284 9.18066 23.8082 10.3895 24.0676C10.5903 24.1106 10.8346 24.0752 11.0537 24.0435C11.6865 23.9518 12.1089 23.8905 10.6643 25.838C10.5862 25.9433 10.4709 25.976 10.3269 25.9494C10.3243 25.9536 10.3218 25.9579 10.3192 25.9621C10.314 25.9563 10.3088 25.9505 10.3036 25.9446ZM14.9532 25.9574L14.9561 25.9621L14.9608 25.9568C16.204 25.8602 19.9348 20.6765 19.7684 20.5654C16.9979 23.1284 16.163 23.8082 14.9542 24.0676C14.7534 24.1106 14.509 24.0752 14.2899 24.0435C13.6572 23.9518 13.2347 23.8905 14.6793 25.838C14.7456 25.9274 14.8386 25.9644 14.9532 25.9574ZM13.6403 30.8208C13.9849 31.512 14.27 32.1852 14.4984 32.828C14.4892 32.7179 14.4821 32.6084 14.4774 32.4996C14.4387 31.6089 14.6712 30.5736 14.9494 29.6903C14.4987 30.0647 14.0592 30.441 13.6403 30.8208ZM6.59545 52.5404C8.60279 54.7877 10.6755 59.4179 10.9138 64C10.7091 63.5267 10.5033 63.0355 10.2923 62.5317L10.2921 62.5313L10.292 62.531L10.2916 62.5301L10.2911 62.5289L10.2911 62.5288C9.02884 59.5155 7.57778 56.0513 5.04248 53.2783C1.38404 49.277 -0.808439 45.0919 0.279516 41.2544C0.863126 39.1958 1.72961 37.5941 2.61515 35.9572C3.4928 34.3349 4.38916 32.678 5.04745 30.5074C5.42372 32.6799 4.47859 34.9432 3.51908 37.241C2.94771 38.6092 2.37124 39.9897 2.06567 41.3705C1.30654 44.8006 2.58082 48.0457 6.59545 52.5404ZM14.686 64C14.9243 59.4179 16.997 54.7877 19.0044 52.5404C23.019 48.0457 24.2933 44.8006 23.5342 41.3705C23.2286 39.9897 22.6521 38.6092 22.0807 37.241C21.1212 34.9432 20.1761 32.6799 20.5524 30.5074C21.2107 32.678 22.107 34.3349 22.9847 35.9572C23.8702 37.5941 24.7367 39.1958 25.3203 41.2544C26.4083 45.0919 24.2158 49.277 20.5573 53.2783C18.0221 56.0513 16.571 59.5154 15.3088 62.5287L15.3087 62.529C15.0972 63.0338 14.8911 63.5259 14.686 64Z" fill="white"/>
</svg>
